Coordinates
version=1
nRows=38
nColumns=12
inDegrees=yes

Units are S.I. units (second, meters, Newtons, ...)
Angles are in degrees

endheader
time	SC_y	SC_z	SC_x	AC_y	AC_z	AC_x	GH_y	GH_z	GH_yy	EL_x	PS_y
       0.0              -53.89         -2.167          81.67          38.06          9.075         -7.906          93.97          44.77          33.51          85.79          9.225
   0.02517               -53.9         -2.166          81.66          38.06          9.073         -7.907          93.97          44.77          33.51           85.8          9.227
   0.05033               -53.9         -2.165          81.66          38.07           9.07         -7.908          93.98          44.77          33.51          85.81          9.228
    0.0755               -53.9         -2.163          81.66          38.07          9.067         -7.908          93.98          44.78          33.51          85.82           9.23
    0.1007               -53.9         -2.162          81.66          38.07          9.064         -7.909          93.99          44.78          33.51          85.82          9.232
    0.1258               -53.9          -2.16          81.65          38.07           9.06          -7.91           94.0          44.79          33.51          85.83          9.234
     0.151               -53.9         -2.159          81.65          38.07          9.057          -7.91           94.0          44.79          33.51          85.84          9.236
    0.1762               -53.9         -2.157          81.65          38.08          9.053         -7.911          94.01           44.8           33.5          85.85          9.238
    0.2013               -53.9         -2.155          81.64          38.08          9.049         -7.912          94.02          44.81           33.5          85.86          9.241
    0.2265               -53.9         -2.153          81.64          38.08          9.044         -7.913          94.03          44.81           33.5          85.88          9.244
    0.2517               -53.9         -2.151          81.63          38.09          9.039         -7.914          94.04          44.82           33.5          85.89          9.246
    0.2768               -53.9         -2.149          81.63          38.09          9.034         -7.915          94.05          44.83           33.5           85.9          9.249
     0.302               -53.9         -2.146          81.62          38.09          9.029         -7.916          94.06          44.83           33.5          85.92          9.253
    0.3272               -53.9         -2.143          81.62           38.1          9.023         -7.917          94.07          44.84           33.5          85.93          9.256
    0.3523               -53.9         -2.141          81.61           38.1          9.016         -7.919          94.09          44.85           33.5          85.95           9.26
    0.3775              -53.91         -2.137           81.6          38.11          9.009          -7.92           94.1          44.86           33.5          85.97          9.264
    0.4027              -53.91         -2.134           81.6          38.11          9.002         -7.922          94.12          44.87          33.49          85.99          9.269
    0.4278              -53.91          -2.13          81.59          38.12          8.993         -7.924          94.13          44.89          33.49          86.01          9.274
     0.453              -53.91         -2.126          81.58          38.13          8.984         -7.926          94.15           44.9          33.49          86.04          9.279
    0.4782              -53.91         -2.122          81.57          38.13          8.974         -7.928          94.17          44.91          33.49          86.06          9.285
    0.5033              -53.91         -2.117          81.56          38.14          8.963          -7.93          94.19          44.93          33.49          86.09          9.292
    0.5285              -53.92         -2.112          81.55          38.15          8.951         -7.933          94.22          44.95          33.48          86.12          9.299
    0.5537              -53.92         -2.106          81.54          38.16          8.938         -7.935          94.24          44.97          33.48          86.16          9.307
    0.5788              -53.92         -2.099          81.52          38.17          8.923         -7.938          94.27          44.99          33.48           86.2          9.315
     0.604              -53.92         -2.092          81.51          38.18          8.907         -7.942          94.31          45.01          33.48          86.24          9.325
    0.6292              -53.93         -2.084          81.49          38.19          8.888         -7.946          94.34          45.04          33.47          86.29          9.336
    0.6543              -53.93         -2.074          81.47          38.21          8.868          -7.95          94.38          45.07          33.47          86.34          9.348
    0.6795              -53.93         -2.064          81.45          38.22          8.845         -7.955          94.43           45.1          33.46          86.41          9.362
    0.7047              -53.94         -2.053          81.43          38.24          8.819          -7.96          94.48          45.14          33.46          86.47          9.377
    0.7299              -53.94         -2.039           81.4          38.26          8.789         -7.967          94.54          45.18          33.45          86.55          9.394
     0.755              -53.95         -2.024          81.37          38.28          8.756         -7.974          94.61          45.23          33.45          86.64          9.414
    0.7802              -53.96         -2.007          81.33          38.31          8.717         -7.982          94.69          45.28          33.44          86.75          9.437
    0.8054              -53.96         -1.987          81.29          38.34          8.672         -7.991          94.78          45.35          33.43          86.86          9.464
    0.8305              -53.97         -1.964          81.24          38.38           8.62         -8.002          94.88          45.42          33.42           87.0          9.495
    0.8557              -53.98         -1.937          81.19          38.42          8.559         -8.015          95.01          45.51          33.41          87.16           9.53
    0.8809              -53.99         -1.905          81.12          38.47          8.488          -8.03          95.15          45.62           33.4          87.35          9.573
     0.906              -54.01         -1.867          81.04          38.53          8.403         -8.048          95.32          45.74          33.38          87.58          9.623
    0.9312              -54.02         -1.822          80.94           38.6          8.301         -8.069          95.53          45.89          33.36          87.85          9.684
